<svg width="192" height="192" viewBox="0 0 192 192" fill="none" xmlns="http://www.w3.org/2000/svg">
  <rect width="192" height="192" rx="16" fill="#F4D03F"/>
  <path d="M96 48C127.137 48 152 72.8629 152 104C152 135.137 127.137 160 96 160C64.8629 160 40 135.137 40 104C40 72.8629 64.8629 48 96 48ZM96 64C73.9086 64 56 81.9086 56 104C56 126.091 73.9086 144 96 144C118.091 144 136 126.091 136 104C136 81.9086 118.091 64 96 64Z" fill="#E67E22"/>
  <path d="M96 80C109.255 80 120 90.7452 120 104C120 117.255 109.255 128 96 128C82.7452 128 72 117.255 72 104C72 90.7452 82.7452 80 96 80Z" fill="#F5B041"/>
  <path d="M96 88C104.837 88 112 95.1634 112 104C112 112.837 104.837 120 96 120C87.1634 120 80 112.837 80 104C80 95.1634 87.1634 88 96 88Z" fill="#FDEBD0"/>
</svg>