<svg width="120" height="40" viewBox="0 0 120 40" fill="none" xmlns="http://www.w3.org/2000/svg">
  <path d="M20.5 8C31.8218 8 41 17.1782 41 28.5C41 29.8807 40.8807 31.2614 40.6421 32.5H0.357877C0.119292 31.2614 0 29.8807 0 28.5C0 17.1782 9.17816 8 20.5 8Z" fill="#FF97B7"/>
  <path d="M48 16.5C48 15.1193 48.1193 13.7386 48.3579 12.5H88.6421C88.8807 13.7386 89 15.1193 89 16.5C89 27.8218 79.8218 37 68.5 37C57.1782 37 48 27.8218 48 16.5Z" fill="#FF97B7"/>
  <path d="M96 28.5C96 17.1782 105.178 8 116.5 8C117.881 8 119.261 8.11929 120.5 8.35788V32.5H76.3579C76.1193 31.2614 76 29.8807 76 28.5C76 17.1782 85.1782 8 96.5 8H116.5C105.178 8 96 17.1782 96 28.5Z" fill="#FF97B7"/>
</svg>